<svg xmlns="http://www.w3.org/2000/svg" xmlns:xlink="http://www.w3.org/1999/xlink" width="0" height="0" style="display:none;"><symbol viewBox="0 0 24 24" id="download-2-line"><path d="M13 10H18L12 16L6 10H11V3H13V10ZM4 19H20V12H22V20C22 20.5523 21.5523 21 21 21H3C2.44772 21 2 20.5523 2 20V12H4V19Z"></path></symbol><symbol viewBox="0 0 24 24" id="information-line"><path d="M12 22C6.47715 22 2 17.5228 2 12C2 6.47715 6.47715 2 12 2C17.5228 2 22 6.47715 22 12C22 17.5228 17.5228 22 12 22ZM12 20C16.4183 20 20 16.4183 20 12C20 7.58172 16.4183 4 12 4C7.58172 4 4 7.58172 4 12C4 16.4183 7.58172 20 12 20ZM11 7H13V9H11V7ZM11 11H13V17H11V11Z"></path></symbol><symbol viewBox="0 0 24 24" id="alert-line"><path d="M12.8659 3.00017L22.3922 19.5002C22.6684 19.9785 22.5045 20.5901 22.0262 20.8662C21.8742 20.954 21.7017 21.0002 21.5262 21.0002H2.47363C1.92135 21.0002 1.47363 20.5525 1.47363 20.0002C1.47363 19.8246 1.51984 19.6522 1.60761 19.5002L11.1339 3.00017C11.41 2.52187 12.0216 2.358 12.4999 2.63414C12.6519 2.72191 12.7782 2.84815 12.8659 3.00017ZM4.20568 19.0002H19.7941L11.9999 5.50017L4.20568 19.0002ZM10.9999 16.0002H12.9999V18.0002H10.9999V16.0002ZM10.9999 9.00017H12.9999V14.0002H10.9999V9.00017Z"></path></symbol><symbol viewBox="0 0 24 24" id="loader-2-line"><path d="M12 2C12.5523 2 13 2.44772 13 3V6C13 6.55228 12.5523 7 12 7C11.4477 7 11 6.55228 11 6V3C11 2.44772 11.4477 2 12 2ZM12 17C12.5523 17 13 17.4477 13 18V21C13 21.5523 12.5523 22 12 22C11.4477 22 11 21.5523 11 21V18C11 17.4477 11.4477 17 12 17ZM22 12C22 12.5523 21.5523 13 21 13H18C17.4477 13 17 12.5523 17 12C17 11.4477 17.4477 11 18 11H21C21.5523 11 22 11.4477 22 12ZM7 12C7 12.5523 6.55228 13 6 13H3C2.44772 13 2 12.5523 2 12C2 11.4477 2.44772 11 3 11H6C6.55228 11 7 11.4477 7 12ZM19.0711 19.0711C18.6805 19.4616 18.0474 19.4616 17.6569 19.0711L15.5355 16.9497C15.145 16.5592 15.145 15.9261 15.5355 15.5355C15.9261 15.145 16.5592 15.145 16.9497 15.5355L19.0711 17.6569C19.4616 18.0474 19.4616 18.6805 19.0711 19.0711ZM8.46447 8.46447C8.07394 8.85499 7.44078 8.85499 7.05025 8.46447L4.92893 6.34315C4.53841 5.95262 4.53841 5.31946 4.92893 4.92893C5.31946 4.53841 5.95262 4.53841 6.34315 4.92893L8.46447 7.05025C8.85499 7.44078 8.85499 8.07394 8.46447 8.46447ZM4.92893 19.0711C4.53841 18.6805 4.53841 18.0474 4.92893 17.6569L7.05025 15.5355C7.44078 15.145 8.07394 15.145 8.46447 15.5355C8.85499 15.9261 8.85499 16.5592 8.46447 16.9497L6.34315 19.0711C5.95262 19.4616 5.31946 19.4616 4.92893 19.0711ZM15.5355 8.46447C15.145 8.07394 15.145 7.44078 15.5355 7.05025L17.6569 4.92893C18.0474 4.53841 18.6805 4.53841 19.0711 4.92893C19.4616 5.31946 19.4616 5.95262 19.0711 6.34315L16.9497 8.46447C16.5592 8.85499 15.9261 8.85499 15.5355 8.46447Z"></path></symbol><symbol viewBox="0 0 24 24" id="arrow-down-s-line"><path d="M11.9999 13.1714L16.9497 8.22168L18.3639 9.63589L11.9999 15.9999L5.63599 9.63589L7.0502 8.22168L11.9999 13.1714Z"></path></symbol><symbol viewBox="0 0 24 24" id="arrow-up-s-line"><path d="M11.9999 10.8284L7.0502 15.7782L5.63599 14.364L11.9999 8L18.3639 14.364L16.9497 15.7782L11.9999 10.8284Z"></path></symbol><symbol viewBox="0 0 24 24" id="smartphone-line"><path d="M7 4V20H17V4H7ZM6 2H18C18.5523 2 19 2.44772 19 3V21C19 21.5523 18.5523 22 18 22H6C5.44772 22 5 21.5523 5 21V3C5 2.44772 5.44772 2 6 2ZM12 17C12.5523 17 13 17.4477 13 18C13 18.5523 12.5523 19 12 19C11.4477 19 11 18.5523 11 18C11 17.4477 11.4477 17 12 17Z"></path></symbol><symbol viewBox="0 0 24 24" id="mail-line"><path d="M3 3H21C21.5523 3 22 3.44772 22 4V20C22 20.5523 21.5523 21 21 21H3C2.44772 21 2 20.5523 2 20V4C2 3.44772 2.44772 3 3 3ZM20 7.23792L12.0718 14.338L4 7.21594V19H20V7.23792ZM4.51146 5L12.0619 11.662L19.501 5H4.51146Z"></path></symbol><symbol viewBox="0 0 24 24" id="global-line"><path d="M12 22C6.47715 22 2 17.5228 2 12C2 6.47715 6.47715 2 12 2C17.5228 2 22 6.47715 22 12C22 17.5228 17.5228 22 12 22ZM9.71002 19.6674C8.74743 17.6259 8.15732 15.3742 8.02731 13H4.06189C4.458 16.1765 6.71639 18.7747 9.71002 19.6674ZM10.0307 13C10.1811 15.4388 10.8778 17.7297 12 19.752C13.1222 17.7297 13.8189 15.4388 13.9693 13H10.0307ZM19.9381 13H15.9727C15.8427 15.3742 15.2526 17.6259 14.29 19.6674C17.2836 18.7747 19.542 16.1765 19.9381 13ZM4.06189 11H8.02731C8.15732 8.62577 8.74743 6.37407 9.71002 4.33256C6.71639 5.22533 4.458 7.8235 4.06189 11ZM10.0307 11H13.9693C13.8189 8.56122 13.1222 6.27025 12 4.24799C10.8778 6.27025 10.1811 8.56122 10.0307 11ZM14.29 4.33256C15.2526 6.37407 15.8427 8.62577 15.9727 11H19.9381C19.542 7.8235 17.2836 5.22533 14.29 4.33256Z"></path></symbol><symbol viewBox="0 0 24 24" id="twitter-x-line"><path d="M10.4883 14.651L15.25 21H22.25L14.3917 10.5223L20.9308 3H18.2808L13.1643 8.88578L8.75 3H1.75L9.26086 13.0145L2.31915 21H4.96917L10.4883 14.651ZM16.25 19L5.75 5H7.75L18.25 19H16.25Z"></path></symbol><symbol viewBox="0 0 24 24" id="twitter-line"><path d="M15.3499 5.55005C13.7681 5.55005 12.4786 6.81809 12.4504 8.39658L12.4223 9.97162C12.4164 10.3029 12.143 10.5667 11.8117 10.5608C11.7881 10.5604 11.7646 10.5586 11.7413 10.5554L10.1805 10.3426C8.12699 10.0625 6.15883 9.11736 4.27072 7.54411C3.67275 10.8538 4.84 13.1472 7.65342 14.916L9.40041 16.0142C9.68095 16.1906 9.7654 16.561 9.58903 16.8415C9.54861 16.9058 9.49636 16.9619 9.43504 17.0067L7.84338 18.1696C8.78973 18.229 9.68938 18.1875 10.435 18.0387C15.1526 17.0973 18.2897 13.547 18.2897 7.69109C18.2897 7.213 17.2774 5.55005 15.3499 5.55005ZM10.4507 8.3609C10.4983 5.69584 12.6735 3.55005 15.3499 3.55005C16.7132 3.55005 17.9465 4.10683 18.8348 5.0054C19.5462 5.00005 20.1514 5.17991 21.5035 4.35967C21.1693 6.00005 21.0034 6.71201 20.2897 7.69109C20.2897 15.3326 15.5926 19.0489 10.8264 20C7.5587 20.6522 2.80646 19.5815 1.44531 18.1587C2.13874 18.1054 4.95928 17.802 6.58895 16.6092C5.20994 15.6987 -0.278631 12.4681 3.32772 3.78642C5.02119 5.76307 6.73797 7.10855 8.47807 7.82286C9.63548 8.29798 9.91978 8.2885 10.4507 8.3609Z"></path></symbol><symbol viewBox="0 0 24 24" id="facebook-box-line"><path d="M14 19H19V5H5V19H12V14H10V12H12V10.3458C12 9.00855 12.1392 8.52362 12.4007 8.03473C12.6622 7.54584 13.0458 7.16216 13.5347 6.9007C13.9174 6.69604 14.3922 6.57252 15.2217 6.51954C15.551 6.49851 15.9771 6.52533 16.5 6.6V8.5H16C15.0827 8.5 14.7042 8.54332 14.4779 8.66433C14.3376 8.73939 14.2394 8.83758 14.1643 8.97793C14.0433 9.20418 14 9.42853 14 10.3458V12H16.5L16 14H14V19ZM4 3H20C20.5523 3 21 3.44772 21 4V20C21 20.5523 20.5523 21 20 21H4C3.44772 21 3 20.5523 3 20V4C3 3.44772 3.44772 3 4 3Z"></path></symbol><symbol viewBox="0 0 24 24" id="youtube-line"><path d="M19.6069 6.99482C19.5307 6.69695 19.3152 6.47221 19.0684 6.40288C18.6299 6.28062 16.501 6 12.001 6C7.50098 6 5.37252 6.28073 4.93225 6.40323C4.68776 6.47123 4.4723 6.69593 4.3951 6.99482C4.2863 7.41923 4.00098 9.19595 4.00098 12C4.00098 14.804 4.2863 16.5808 4.3954 17.0064C4.47126 17.3031 4.68676 17.5278 4.93251 17.5968C5.37252 17.7193 7.50098 18 12.001 18C16.501 18 18.6299 17.7194 19.0697 17.5968C19.3142 17.5288 19.5297 17.3041 19.6069 17.0052C19.7157 16.5808 20.001 14.8 20.001 12C20.001 9.2 19.7157 7.41923 19.6069 6.99482ZM21.5442 6.49818C22.001 8.28 22.001 12 22.001 12C22.001 12 22.001 15.72 21.5442 17.5018C21.2897 18.4873 20.547 19.2618 19.6056 19.5236C17.8971 20 12.001 20 12.001 20C12.001 20 6.10837 20 4.39637 19.5236C3.45146 19.2582 2.70879 18.4836 2.45774 17.5018C2.00098 15.72 2.00098 12 2.00098 12C2.00098 12 2.00098 8.28 2.45774 6.49818C2.71227 5.51273 3.45495 4.73818 4.39637 4.47636C6.10837 4 12.001 4 12.001 4C12.001 4 17.8971 4 19.6056 4.47636C20.5505 4.74182 21.2932 5.51636 21.5442 6.49818ZM10.001 15.5V8.5L16.001 12L10.001 15.5Z"></path></symbol><symbol viewBox="0 0 24 24" id="instagram-line"><path d="M12.001 9C10.3436 9 9.00098 10.3431 9.00098 12C9.00098 13.6573 10.3441 15 12.001 15C13.6583 15 15.001 13.6569 15.001 12C15.001 10.3427 13.6579 9 12.001 9ZM12.001 7C14.7614 7 17.001 9.2371 17.001 12C17.001 14.7605 14.7639 17 12.001 17C9.24051 17 7.00098 14.7629 7.00098 12C7.00098 9.23953 9.23808 7 12.001 7ZM18.501 6.74915C18.501 7.43926 17.9402 7.99917 17.251 7.99917C16.5609 7.99917 16.001 7.4384 16.001 6.74915C16.001 6.0599 16.5617 5.5 17.251 5.5C17.9393 5.49913 18.501 6.0599 18.501 6.74915ZM12.001 4C9.5265 4 9.12318 4.00655 7.97227 4.0578C7.18815 4.09461 6.66253 4.20007 6.17416 4.38967C5.74016 4.55799 5.42709 4.75898 5.09352 5.09255C4.75867 5.4274 4.55804 5.73963 4.3904 6.17383C4.20036 6.66332 4.09493 7.18811 4.05878 7.97115C4.00703 9.0752 4.00098 9.46105 4.00098 12C4.00098 14.4745 4.00753 14.8778 4.05877 16.0286C4.0956 16.8124 4.2012 17.3388 4.39034 17.826C4.5591 18.2606 4.7605 18.5744 5.09246 18.9064C5.42863 19.2421 5.74179 19.4434 6.17187 19.6094C6.66619 19.8005 7.19148 19.9061 7.97212 19.9422C9.07618 19.9939 9.46203 20 12.001 20C14.4755 20 14.8788 19.9934 16.0296 19.9422C16.8117 19.9055 17.3385 19.7996 17.827 19.6106C18.2604 19.4423 18.5752 19.2402 18.9074 18.9085C19.2436 18.5718 19.4445 18.2594 19.6107 17.8283C19.8013 17.3358 19.9071 16.8098 19.9432 16.0289C19.9949 14.9248 20.001 14.5389 20.001 12C20.001 9.52552 19.9944 9.12221 19.9432 7.97137C19.9064 7.18906 19.8005 6.66149 19.6113 6.17318C19.4434 5.74038 19.2417 5.42635 18.9084 5.09255C18.573 4.75715 18.2616 4.55693 17.8271 4.38942C17.338 4.19954 16.8124 4.09396 16.0298 4.05781C14.9258 4.00605 14.5399 4 12.001 4ZM12.001 2C14.7176 2 15.0568 2.01 16.1235 2.06C17.1876 2.10917 17.9135 2.2775 18.551 2.525C19.2101 2.77917 19.7668 3.1225 20.3226 3.67833C20.8776 4.23417 21.221 4.7925 21.476 5.45C21.7226 6.08667 21.891 6.81333 21.941 7.8775C21.9885 8.94417 22.001 9.28333 22.001 12C22.001 14.7167 21.991 15.0558 21.941 16.1225C21.8918 17.1867 21.7226 17.9125 21.476 18.55C21.2218 19.2092 20.8776 19.7658 20.3226 20.3217C19.7668 20.8767 19.2076 21.22 18.551 21.475C17.9135 21.7217 17.1876 21.89 16.1235 21.94C15.0568 21.9875 14.7176 22 12.001 22C9.28431 22 8.94514 21.99 7.87848 21.94C6.81431 21.8908 6.08931 21.7217 5.45098 21.475C4.79264 21.2208 4.23514 20.8767 3.67931 20.3217C3.12348 19.7658 2.78098 19.2067 2.52598 18.55C2.27848 17.9125 2.11098 17.1867 2.06098 16.1225C2.01348 15.0558 2.00098 14.7167 2.00098 12C2.00098 9.28333 2.01098 8.94417 2.06098 7.8775C2.11014 6.8125 2.27848 6.0875 2.52598 5.45C2.78014 4.79167 3.12348 4.23417 3.67931 3.67833C4.23514 3.1225 4.79348 2.78 5.45098 2.525C6.08848 2.2775 6.81348 2.11 7.87848 2.06C8.94514 2.0125 9.28431 2 12.001 2Z"></path></symbol><symbol viewBox="0 0 24 24" id="twitch-fill"><path d="M21.001 3V14.7391L16.3053 19.4348H12.3923L9.95523 21.7826H6.91402V19.4348H3.00098V6.13043L4.2281 3H21.001ZM19.4358 4.56522H6.13141V16.3043H9.26185V18.6522L11.6097 16.3043H16.3053L19.4358 13.1739V4.56522ZM16.3053 7.69565V12.3913H14.7401V7.69565H16.3053ZM12.3923 7.69565V12.3913H10.8271V7.69565H12.3923Z"></path></symbol><symbol viewBox="0 0 24 24" id="github-line"><path d="M5.88401 18.6533C5.58404 18.4526 5.32587 18.1975 5.0239 17.8369C4.91473 17.7065 4.47283 17.1524 4.55811 17.2583C4.09533 16.6833 3.80296 16.417 3.50156 16.3089C2.9817 16.1225 2.7114 15.5499 2.89784 15.0301C3.08428 14.5102 3.65685 14.2399 4.17672 14.4263C4.92936 14.6963 5.43847 15.1611 6.12425 16.0143C6.03025 15.8974 6.46364 16.441 6.55731 16.5529C6.74784 16.7804 6.88732 16.9182 6.99629 16.9911C7.20118 17.1283 7.58451 17.1874 8.14709 17.1311C8.17065 16.7489 8.24136 16.3783 8.34919 16.0358C5.38097 15.3104 3.70116 13.3952 3.70116 9.63971C3.70116 8.40085 4.0704 7.28393 4.75917 6.3478C4.5415 5.45392 4.57433 4.37284 5.06092 3.15636C5.1725 2.87739 5.40361 2.66338 5.69031 2.57352C5.77242 2.54973 5.81791 2.53915 5.89878 2.52673C6.70167 2.40343 7.83573 2.69705 9.31449 3.62336C10.181 3.41879 11.0885 3.315 12.0012 3.315C12.9129 3.315 13.8196 3.4186 14.6854 3.62277C16.1619 2.69 17.2986 2.39649 18.1072 2.52651C18.1919 2.54013 18.2645 2.55783 18.3249 2.57766C18.6059 2.66991 18.8316 2.88179 18.9414 3.15636C19.4279 4.37256 19.4608 5.45344 19.2433 6.3472C19.9342 7.28337 20.3012 8.39208 20.3012 9.63971C20.3012 13.3968 18.627 15.3048 15.6588 16.032C15.7837 16.447 15.8496 16.9105 15.8496 17.4121C15.8496 18.0765 15.8471 18.711 15.8424 19.4225C15.8412 19.6127 15.8397 19.8159 15.8375 20.1281C16.2129 20.2109 16.5229 20.5077 16.6031 20.9089C16.7114 21.4504 16.3602 21.9773 15.8186 22.0856C14.6794 22.3134 13.8353 21.5538 13.8353 20.5611C13.8353 20.4708 13.836 20.3417 13.8375 20.1145C13.8398 19.8015 13.8412 19.599 13.8425 19.4094C13.8471 18.7019 13.8496 18.0716 13.8496 17.4121C13.8496 16.7148 13.6664 16.2602 13.4237 16.051C12.7627 15.4812 13.0977 14.3973 13.965 14.2999C16.9314 13.9666 18.3012 12.8177 18.3012 9.63971C18.3012 8.68508 17.9893 7.89571 17.3881 7.23559C17.1301 6.95233 17.0567 6.54659 17.199 6.19087C17.3647 5.77663 17.4354 5.23384 17.2941 4.57702L17.2847 4.57968C16.7928 4.71886 16.1744 5.0198 15.4261 5.5285C15.182 5.69438 14.8772 5.74401 14.5932 5.66413C13.7729 5.43343 12.8913 5.315 12.0012 5.315C11.111 5.315 10.2294 5.43343 9.40916 5.66413C9.12662 5.74359 8.82344 5.69492 8.57997 5.53101C7.8274 5.02439 7.2056 4.72379 6.71079 4.58376C6.56735 5.23696 6.63814 5.77782 6.80336 6.19087C6.94565 6.54659 6.87219 6.95233 6.61423 7.23559C6.01715 7.8912 5.70116 8.69376 5.70116 9.63971C5.70116 12.8116 7.07225 13.9683 10.023 14.2999C10.8883 14.3971 11.2246 15.4769 10.5675 16.0482C10.3751 16.2156 10.1384 16.7802 10.1384 17.4121V20.5611C10.1384 21.5474 9.30356 22.2869 8.17878 22.09C7.63476 21.9948 7.27093 21.4766 7.36613 20.9326C7.43827 20.5204 7.75331 20.2116 8.13841 20.1276V19.1381C7.22829 19.1994 6.47656 19.0498 5.88401 18.6533Z"></path></symbol><symbol viewBox="0 0 24 24" id="linkedin-box-line"><path d="M4.00098 3H20.001C20.5533 3 21.001 3.44772 21.001 4V20C21.001 20.5523 20.5533 21 20.001 21H4.00098C3.44869 21 3.00098 20.5523 3.00098 20V4C3.00098 3.44772 3.44869 3 4.00098 3ZM5.00098 5V19H19.001V5H5.00098ZM7.50098 9C6.67255 9 6.00098 8.32843 6.00098 7.5C6.00098 6.67157 6.67255 6 7.50098 6C8.3294 6 9.00098 6.67157 9.00098 7.5C9.00098 8.32843 8.3294 9 7.50098 9ZM6.50098 10H8.50098V17.5H6.50098V10ZM12.001 10.4295C12.5854 9.86534 13.2665 9.5 14.001 9.5C16.072 9.5 17.501 11.1789 17.501 13.25V17.5H15.501V13.25C15.501 12.2835 14.7175 11.5 13.751 11.5C12.7845 11.5 12.001 12.2835 12.001 13.25V17.5H10.001V10H12.001V10.4295Z"></path></symbol><symbol viewBox="0 0 24 24" id="xing-line"><path d="M20.4443 3.5L13.8099 14.9901L17.8573 22H15.5473L11.5021 14.9914L11.5003 14.9904L18.1343 3.5H20.4443ZM8.31033 7L10.7324 11.1962L10.7305 11.1973L7.66933 16.5H5.36133L8.42215 11.1951L6.00133 7H8.31033Z"></path></symbol><symbol viewBox="0 0 24 24" id="share-fill"><path d="M13.5759 17.2714L8.46576 14.484C7.83312 15.112 6.96187 15.5 6 15.5C4.067 15.5 2.5 13.933 2.5 12C2.5 10.067 4.067 8.5 6 8.5C6.96181 8.5 7.83301 8.88796 8.46564 9.51593L13.5759 6.72855C13.5262 6.49354 13.5 6.24983 13.5 6C13.5 4.067 15.067 2.5 17 2.5C18.933 2.5 20.5 4.067 20.5 6C20.5 7.933 18.933 9.5 17 9.5C16.0381 9.5 15.1669 9.11201 14.5343 8.48399L9.42404 11.2713C9.47382 11.5064 9.5 11.7501 9.5 12C9.5 12.2498 9.47383 12.4935 9.42408 12.7285L14.5343 15.516C15.167 14.888 16.0382 14.5 17 14.5C18.933 14.5 20.5 16.067 20.5 18C20.5 19.933 18.933 21.5 17 21.5C15.067 21.5 13.5 19.933 13.5 18C13.5 17.7502 13.5262 17.5064 13.5759 17.2714Z"></path></symbol><symbol viewBox="0 0 24 24" id="file-copy-line"><path d="M6.9998 6V3C6.9998 2.44772 7.44752 2 7.9998 2H19.9998C20.5521 2 20.9998 2.44772 20.9998 3V17C20.9998 17.5523 20.5521 18 19.9998 18H16.9998V20.9991C16.9998 21.5519 16.5499 22 15.993 22H4.00666C3.45059 22 3 21.5554 3 20.9991L3.0026 7.00087C3.0027 6.44811 3.45264 6 4.00942 6H6.9998ZM5.00242 8L5.00019 20H14.9998V8H5.00242ZM8.9998 6H16.9998V16H18.9998V4H8.9998V6Z"></path></symbol><symbol viewBox="0 0 24 24" id="paypal-line"><path d="M8.49626 20.6667H10.0474L10.5852 17.2912C10.8012 15.93 11.9747 14.9253 13.3545 14.9253H13.8545C16.5322 14.9253 17.915 13.9421 18.4055 11.4224C18.6134 10.3564 18.5222 9.69183 18.2339 9.32047C17.0272 12.3744 14.4449 13.4793 11.2725 13.4793H10.3878C10.004 13.4793 9.59454 13.6889 9.53611 14.0602L8.49626 20.6667ZM3.55247 20.3733C3.21381 20.3733 2.95514 20.0713 3.00781 19.736L5.68247 2.776C5.75314 2.32933 6.13847 2 6.59047 2H13.0138C15.2265 2 16.9558 2.46733 17.9131 3.558C18.783 4.54853 19.0364 5.64237 18.7846 7.25001C19.1438 7.44133 19.4518 7.67467 19.6998 7.956C20.5185 8.88867 20.6785 10.216 20.3685 11.8053C19.6278 15.6107 17.0925 16.9253 13.8545 16.9253H13.3545C12.9591 16.9253 12.6225 17.214 12.5605 17.6047L11.8578 21.988C11.7958 22.3787 11.4591 22.6667 11.0638 22.6667H6.72114C6.42447 22.6667 6.19781 22.402 6.24381 22.1093L6.51781 20.3733H3.55247ZM10.3878 11.4793H11.2725C14.462 11.4793 16.1671 10.2667 16.7549 7.2501C16.7744 7.14856 16.7919 7.04727 16.8086 6.94101C16.9746 5.88187 16.8586 5.38808 16.4104 4.87773C15.9451 4.34763 14.8073 4 13.0138 4H7.51416L5.24742 18.3733H6.80845L7.53821 13.7452L7.54562 13.7463C7.84632 12.4296 9.0169 11.4793 10.3878 11.4793Z"></path></symbol><symbol viewBox="0 0 24 24" id="patreon-line"><path d="M15.001 17C10.8588 17 7.50098 13.6421 7.50098 9.5C7.50098 5.35786 10.8588 2 15.001 2C19.1431 2 22.501 5.35786 22.501 9.5C22.501 13.6421 19.1431 17 15.001 17ZM15.001 15C18.0385 15 20.501 12.5376 20.501 9.5C20.501 6.46243 18.0385 4 15.001 4C11.9634 4 9.50098 6.46243 9.50098 9.5C9.50098 12.5376 11.9634 15 15.001 15ZM2.00098 2H7.00098V22H2.00098V2ZM4.00098 4V20H5.00098V4H4.00098Z"></path></symbol><symbol viewBox="0 0 24 24" id="pinterest-line"><path d="M8.49161 19.1912C8.51535 18.8546 8.56306 18.5199 8.63456 18.1897C8.69754 17.8951 8.88867 17.0596 9.16872 15.8498L9.17581 15.8191C9.29895 15.2872 9.43089 14.7192 9.56283 14.1525C9.64199 13.8124 9.70356 13.5484 9.74438 13.4602C9.55012 13.0123 9.45298 12.5263 9.45969 12.0373C9.45969 10.6999 10.2157 9.66359 11.1958 9.6636C11.5555 9.65809 11.8996 9.81388 12.1383 10.09C12.3764 10.3655 12.4863 10.7335 12.4404 11.086C12.4404 11.5385 12.3548 11.8844 11.9865 13.1212C11.9158 13.3587 11.8674 13.5254 11.8215 13.692C11.7696 13.8799 11.7261 14.0503 11.6887 14.2136C11.5928 14.6003 11.6811 15.011 11.9262 15.3195C12.1707 15.6272 12.5421 15.7966 12.9319 15.7762C14.4242 15.7762 15.5321 13.7911 15.5321 11.2277C15.5321 9.25804 14.2412 7.95424 12.1 7.95416C11.0224 7.91127 9.97466 8.32523 9.20095 9.09986C8.42664 9.87508 7.99452 10.9437 8.00559 12.0614C7.98214 12.6633 8.17064 13.2536 8.51804 13.7053C8.69915 13.8441 8.76869 14.0885 8.69262 14.2941C8.65157 14.4632 8.55259 14.8473 8.51649 14.9755C8.49464 15.1032 8.41497 15.2131 8.30126 15.2715C8.18678 15.3303 8.05172 15.3297 7.94618 15.2737C6.78507 14.7954 6.14967 13.4963 6.14967 11.8349C6.14967 8.84907 8.64129 6.2497 12.3417 6.2497C15.4772 6.2497 17.8231 8.57864 17.8231 11.3896C17.8231 14.922 15.8911 17.4942 13.1337 17.4942C12.3393 17.5202 11.5838 17.162 11.087 16.535L11.044 16.712C10.9499 17.0992 10.9028 17.2928 10.8368 17.5638L10.8349 17.5715C10.6887 18.1717 10.5867 18.5885 10.5471 18.7452C10.4412 19.0998 10.307 19.448 10.1471 19.7841C10.7421 19.9253 11.3628 20 12.001 20C16.4193 20 20.001 16.4183 20.001 12C20.001 7.58172 16.4193 4 12.001 4C7.5827 4 4.00098 7.58172 4.00098 12C4.00098 15.1594 5.83244 17.8911 8.49161 19.1912ZM12.001 22C6.47813 22 2.00098 17.5228 2.00098 12C2.00098 6.47715 6.47813 2 12.001 2C17.5238 2 22.001 6.47715 22.001 12C22.001 17.5228 17.5238 22 12.001 22Z"></path></symbol><symbol viewBox="0 0 24 24" id="npmjs-line"><path d="M20.001 3C20.5533 3 21.001 3.44772 21.001 4V20C21.001 20.5523 20.5533 21 20.001 21H4.00098C3.44869 21 3.00098 20.5523 3.00098 20V4C3.00098 3.44772 3.44869 3 4.00098 3H20.001ZM19.001 5H5.00098V19H19.001V5ZM17.001 7V17H14.501V9.5H12.001V17H7.00098V7H17.001Z"></path></symbol><symbol viewBox="0 0 24 24" id="soundcloud-line"><path d="M4 10C4.55228 10 5 10.4477 5 11V18C5 18.5523 4.55228 19 4 19C3.44772 19 3 18.5523 3 18V11C3 10.4477 3.44772 10 4 10ZM7 11C7.55228 11 8 11.4477 8 12V18C8 18.5523 7.55228 19 7 19C6.44772 19 6 18.5523 6 18V12C6 11.4477 6.44772 11 7 11ZM10 7C10.5523 7 11 7.44772 11 8V18C11 18.5523 10.5523 19 10 19C9.44771 19 9 18.5523 9 18V8C9 7.44772 9.44771 7 10 7ZM15 6C18.2384 6 20.8776 8.56557 20.9959 11.7751L20.999 12.0353C22.6956 12.2775 24 13.7364 24 15.5C24 17.3686 22.5357 18.8951 20.692 18.9948L20.5 19H16.999C16.4468 19 15.999 18.5523 15.999 18C15.9989 17.4872 16.3849 17.0645 16.8823 17.0067L16.999 17L20.4461 17.0007L20.584 16.9977C21.3751 16.955 22 16.2975 22 15.5C22 14.7984 21.5142 14.199 20.8512 14.0409L20.7164 14.0152L18.9467 13.7626L18.999 11.976L18.9951 11.8004C18.8943 9.75011 17.2499 8.10567 15.1996 8.0049L15 8C14.7321 8 14.4687 8.02612 14.2123 8.07715L13.999 8.126L13.999 18.0005C13.999 18.5131 13.6132 18.9355 13.1161 18.9933L12.9995 19C12.4475 19 12 18.5525 11.9999 18.0005L11.999 6.80325C12.8818 6.2924 13.9067 6 15 6ZM1 12C1.55228 12 2 12.4477 2 13V17C2 17.5523 1.55228 18 1 18C0.447715 18 0 17.5523 0 17V13C0 12.4477 0.447715 12 1 12Z"></path></symbol><symbol viewBox="0 0 24 24" id="snapchat-line"><path d="M15.3826 10.5792C15.3904 10.4826 15.3969 10.4035 15.4025 10.3311C15.4137 10.1844 15.4243 10.0268 15.4344 9.85059C15.4662 9.29326 15.4853 8.67669 15.4853 8.00554C15.4853 7.1344 15.191 6.51928 14.571 5.94177C13.9117 5.3277 13.1124 5 11.9819 5C10.8441 5 10.0229 5.33486 9.4705 5.88766C8.77543 6.58319 8.51358 7.10616 8.51358 7.98803C8.51358 8.50939 8.57456 9.98166 8.60927 10.6065C8.63818 11.1269 8.46325 11.6252 8.14058 12.0076C8.19484 12.1062 8.24561 12.2117 8.29289 12.3251C8.59378 13.0961 8.4912 13.8677 8.1413 14.5963C7.74878 15.4136 7.41022 15.9889 6.7313 16.7497C6.52804 16.9775 6.31412 17.1923 6.08941 17.3927C6.25199 17.5489 6.38901 17.7334 6.49251 17.9404C6.49542 17.9462 6.49827 17.9519 6.50106 17.9575C7.01006 17.9137 7.52238 17.93 8.08587 18.032C8.89536 18.1784 9.41032 18.4661 10.2803 19.0933L10.2958 19.1042C10.4079 19.184 10.4079 19.184 10.5093 19.2562C11.1281 19.6957 11.3863 19.802 11.9819 19.802C12.5908 19.802 12.892 19.6808 13.5054 19.2501C13.554 19.2159 13.6109 19.1756 13.7125 19.1036C14.5885 18.4722 15.1194 18.1765 15.9433 18.0281C16.4093 17.9491 16.9362 17.9154 17.5022 17.9538C17.517 17.9255 17.5331 17.8957 17.551 17.8635C17.6502 17.685 17.7747 17.525 17.9192 17.3873C17.7052 17.1946 17.4999 16.9885 17.3032 16.7705C16.8745 16.2954 16.5148 15.7932 16.2164 15.2892C16.0348 14.9826 15.9084 14.7317 15.8559 14.611C15.4931 13.8621 15.3867 13.0718 15.7191 12.29C15.7598 12.1923 15.8038 12.1005 15.8509 12.0139C15.5196 11.6223 15.3447 11.1099 15.3826 10.5792ZM5.06689 10.4776C5.48626 10.4776 5.66798 10.7826 6.28626 10.7826C6.44278 10.7826 6.54713 10.7478 6.61235 10.7174C6.60365 10.5609 6.51358 8.73083 6.51358 7.98803C6.51358 6.29966 7.23253 5.29775 8.05583 4.47391C8.87912 3.65008 10.1616 3 11.9819 3C13.8022 3 15.0481 3.65305 15.9341 4.47826C16.8201 5.30347 17.4853 6.4089 17.4853 8.00554C17.4853 9.56082 17.3863 10.6 17.3776 10.7217C17.4341 10.7522 17.5294 10.787 17.6558 10.787C18.2866 10.787 18.2866 10.4776 18.9863 10.4776C19.6715 10.4776 19.9689 11.0468 19.9689 11.3C19.9689 11.9213 19.1368 12.2675 18.6384 12.4261C18.2703 12.5433 17.708 12.7174 17.5645 13.0609C17.4906 13.2348 17.521 13.4609 17.6558 13.7391C17.6597 13.747 18.9167 16.6217 21.5863 17.0652C21.821 17.1 21.9776 17.3065 21.9776 17.5478C21.9776 17.8805 21.608 18.1652 21.2515 18.3304C20.808 18.5304 20.1602 18.7 19.2993 18.8348C19.2558 18.913 19.1648 19.3201 19.0645 19.7217C18.9292 20.2636 18.2633 20.0881 18.0732 20.0478C17.2413 19.8716 16.5341 19.9565 16.2776 20C15.795 20.087 15.3645 20.3783 14.8819 20.7261C14.1689 21.2304 13.4172 21.802 11.9819 21.802C10.5466 21.802 9.83843 21.2304 9.12539 20.7261C8.64278 20.3783 8.22066 20.0888 7.72974 20C6.83117 19.8374 6.15981 20.0357 5.93409 20.0565C5.70837 20.0773 5.09257 20.3009 4.93843 19.7304C4.89359 19.5645 4.74713 18.9217 4.70365 18.8348C3.84713 18.7 3.19496 18.5217 2.75148 18.3217C2.38626 18.1565 2.02539 17.8787 2.02539 17.5435C2.02539 17.3078 2.18336 17.1034 2.41669 17.0609C5.06017 16.5785 6.18185 14.0565 6.33843 13.7304C6.47054 13.4554 6.4993 13.2304 6.42974 13.0522C6.28626 12.7087 5.72539 12.5391 5.35583 12.4174C5.25148 12.3826 4.02067 12.0445 4.02067 11.3C4.02067 11.06 4.22508 10.7269 4.60241 10.5704C4.76382 10.5035 4.9609 10.4776 5.06689 10.4776Z"></path></symbol><symbol viewBox="0 0 24 24" id="slack-line"><path d="M14.501 3C15.3294 3 16.001 3.67157 16.001 4.5V9.5C16.001 10.3284 15.3294 11 14.501 11C13.6725 11 13.001 10.3284 13.001 9.5V4.5C13.001 3.67157 13.6725 3 14.501 3ZM4.50098 13H6.00098V14.5C6.00098 15.3284 5.3294 16 4.50098 16C3.67255 16 3.00098 15.3284 3.00098 14.5C3.00098 13.6716 3.67255 13 4.50098 13ZM13.001 18H14.501C15.3294 18 16.001 18.6716 16.001 19.5C16.001 20.3284 15.3294 21 14.501 21C13.6725 21 13.001 20.3284 13.001 19.5V18ZM14.501 13H19.501C20.3294 13 21.001 13.6716 21.001 14.5C21.001 15.3284 20.3294 16 19.501 16H14.501C13.6725 16 13.001 15.3284 13.001 14.5C13.001 13.6716 13.6725 13 14.501 13ZM19.501 8C20.3294 8 21.001 8.67157 21.001 9.5C21.001 10.3284 20.3294 11 19.501 11H18.001V9.5C18.001 8.67157 18.6725 8 19.501 8ZM4.50098 8H9.50098C10.3294 8 11.001 8.67157 11.001 9.5C11.001 10.3284 10.3294 11 9.50098 11H4.50098C3.67255 11 3.00098 10.3284 3.00098 9.5C3.00098 8.67157 3.67255 8 4.50098 8ZM9.50098 3C10.3294 3 11.001 3.67157 11.001 4.5V6H9.50098C8.67255 6 8.00098 5.32843 8.00098 4.5C8.00098 3.67157 8.67255 3 9.50098 3ZM9.50098 13C10.3294 13 11.001 13.6716 11.001 14.5V19.5C11.001 20.3284 10.3294 21 9.50098 21C8.67255 21 8.00098 20.3284 8.00098 19.5V14.5C8.00098 13.6716 8.67255 13 9.50098 13Z"></path></symbol><symbol viewBox="0 0 24 24" id="steam-line"><path d="M17.0011 4C19.7625 4 22.0011 6.23858 22.0011 9C22.0011 11.7614 19.7625 14 17.0011 14C16.6966 14 16.3985 13.9728 16.1091 13.9207L13.4577 15.9089C13.4863 16.1018 13.5011 16.2992 13.5011 16.5C13.5011 18.7091 11.7102 20.5 9.50106 20.5C7.29192 20.5 5.50106 18.7091 5.50106 16.5C5.50106 16.3225 5.51262 16.1477 5.53503 15.9764L1.70898 14.4303L2.4582 12.576L6.28509 14.121C7.01383 13.1375 8.183 12.5 9.50106 12.5C9.66379 12.5 9.82424 12.5097 9.98188 12.5286L12.0226 9.4676C12.0084 9.31365 12.0011 9.15768 12.0011 9C12.0011 6.23858 14.2396 4 17.0011 4ZM9.50106 14.5C9.03676 14.5 8.6094 14.6582 8.26998 14.9237L9.87567 15.5728C10.3877 15.7797 10.6351 16.3625 10.4282 16.8746C10.2214 17.3867 9.63853 17.6341 9.12646 17.4272L7.52032 16.7787C7.65592 17.7513 8.49106 18.5 9.50106 18.5C10.6056 18.5 11.5011 17.6046 11.5011 16.5C11.5011 15.3954 10.6056 14.5 9.50106 14.5ZM12.8647 11.8099L11.8821 13.2855C12.1661 13.4963 12.4213 13.7438 12.6405 14.021L14.0009 13.0002C13.5599 12.669 13.1755 12.2665 12.8647 11.8099ZM17.0011 6C15.3442 6 14.0011 7.34315 14.0011 9C14.0011 10.6569 15.3442 12 17.0011 12C18.6579 12 20.0011 10.6569 20.0011 9C20.0011 7.34315 18.6579 6 17.0011 6ZM17.0011 7C18.1056 7 19.0011 7.89543 19.0011 9C19.0011 10.1046 18.1056 11 17.0011 11C15.8965 11 15.0011 10.1046 15.0011 9C15.0011 7.89543 15.8965 7 17.0011 7Z"></path></symbol><symbol viewBox="0 0 24 24" id="share-box-line"><path d="M10 3V5H5V19H19V14H21V20C21 20.5523 20.5523 21 20 21H4C3.44772 21 3 20.5523 3 20V4C3 3.44772 3.44772 3 4 3H10ZM17.5858 5H13V3H21V11H19V6.41421L12 13.4142L10.5858 12L17.5858 5Z"></path></symbol><symbol viewBox="0 0 24 24" id="github-fill"><path d="M12.001 2C6.47598 2 2.00098 6.475 2.00098 12C2.00098 16.425 4.86348 20.1625 8.83848 21.4875C9.33848 21.575 9.52598 21.275 9.52598 21.0125C9.52598 20.775 9.51348 19.9875 9.51348 19.15C7.00098 19.6125 6.35098 18.5375 6.15098 17.975C6.03848 17.6875 5.55098 16.8 5.12598 16.5625C4.77598 16.375 4.27598 15.9125 5.11348 15.9C5.90098 15.8875 6.46348 16.625 6.65098 16.925C7.55098 18.4375 8.98848 18.0125 9.56348 17.75C9.65098 17.1 9.91348 16.6625 10.201 16.4125C7.97598 16.1625 5.65098 15.3 5.65098 11.475C5.65098 10.3875 6.03848 9.4875 6.67598 8.7875C6.57598 8.5375 6.22598 7.5125 6.77598 6.1375C6.77598 6.1375 7.61348 5.875 9.52598 7.1625C10.326 6.9375 11.176 6.825 12.026 6.825C12.876 6.825 13.726 6.9375 14.526 7.1625C16.4385 5.8625 17.276 6.1375 17.276 6.1375C17.826 7.5125 17.476 8.5375 17.376 8.7875C18.0135 9.4875 18.401 10.375 18.401 11.475C18.401 15.3125 16.0635 16.1625 13.8385 16.4125C14.201 16.725 14.5135 17.325 14.5135 18.2625C14.5135 19.6 14.501 20.675 14.501 21.0125C14.501 21.275 14.6885 21.5875 15.1885 21.4875C19.259 20.1133 21.9999 16.2963 22.001 12C22.001 6.475 17.526 2 12.001 2Z"></path></symbol><symbol viewBox="0 0 24 24" id="apps-2-fill"><path d="M7 11.5C4.51472 11.5 2.5 9.48528 2.5 7C2.5 4.51472 4.51472 2.5 7 2.5C9.48528 2.5 11.5 4.51472 11.5 7C11.5 9.48528 9.48528 11.5 7 11.5ZM7 21.5C4.51472 21.5 2.5 19.4853 2.5 17C2.5 14.5147 4.51472 12.5 7 12.5C9.48528 12.5 11.5 14.5147 11.5 17C11.5 19.4853 9.48528 21.5 7 21.5ZM17 11.5C14.5147 11.5 12.5 9.48528 12.5 7C12.5 4.51472 14.5147 2.5 17 2.5C19.4853 2.5 21.5 4.51472 21.5 7C21.5 9.48528 19.4853 11.5 17 11.5ZM17 21.5C14.5147 21.5 12.5 19.4853 12.5 17C12.5 14.5147 14.5147 12.5 17 12.5C19.4853 12.5 21.5 14.5147 21.5 17C21.5 19.4853 19.4853 21.5 17 21.5Z"></path></symbol><symbol viewBox="0 0 24 24" id="id-card-line"><path d="M3 6H21V18H3V6ZM2 4C1.44772 4 1 4.44772 1 5V19C1 19.5523 1.44772 20 2 20H22C22.5523 20 23 19.5523 23 19V5C23 4.44772 22.5523 4 22 4H2ZM13 8H19V10H13V8ZM18 12H13V14H18V12ZM10.5 10C10.5 11.3807 9.38071 12.5 8 12.5C6.61929 12.5 5.5 11.3807 5.5 10C5.5 8.61929 6.61929 7.5 8 7.5C9.38071 7.5 10.5 8.61929 10.5 10ZM8 13.5C6.067 13.5 4.5 15.067 4.5 17H11.5C11.5 15.067 9.933 13.5 8 13.5Z"></path></symbol><symbol viewBox="0 0 24 24" id="qr-code-line"><path d="M16 17V16H13V13H16V15H18V17H17V19H15V21H13V18H15V17H16ZM21 21H17V19H19V17H21V21ZM3 3H11V11H3V3ZM5 5V9H9V5H5ZM13 3H21V11H13V3ZM15 5V9H19V5H15ZM3 13H11V21H3V13ZM5 15V19H9V15H5ZM18 13H21V15H18V13ZM6 6H8V8H6V6ZM6 16H8V18H6V16ZM16 6H18V8H16V6Z"></path></symbol><symbol viewBox="0 0 24 24" id="telegram-2-line"><path d="M17.0943 7.14643C17.6874 6.93123 17.9818 6.85378 18.1449 6.82608C18.1461 6.87823 18.1449 6.92051 18.1422 6.94825C17.9096 9.39217 16.8906 15.4048 16.3672 18.2026C16.2447 18.8578 16.1507 19.1697 15.5179 18.798C15.1014 18.5532 14.7245 18.2452 14.3207 17.9805C12.9961 17.1121 11.1 15.8189 11.2557 15.8967C9.95162 15.0373 10.4975 14.5111 11.2255 13.8093C11.3434 13.6957 11.466 13.5775 11.5863 13.4525C11.64 13.3967 11.9027 13.1524 12.2731 12.8081C13.4612 11.7035 15.7571 9.56903 15.8151 9.32202C15.8246 9.2815 15.8334 9.13045 15.7436 9.05068C15.6539 8.97092 15.5215 8.9982 15.4259 9.01989C15.2904 9.05064 13.1326 10.4769 8.95243 13.2986C8.33994 13.7192 7.78517 13.9242 7.28811 13.9134L7.29256 13.9156C6.63781 13.6847 5.9849 13.4859 5.32855 13.286C4.89736 13.1546 4.46469 13.0228 4.02904 12.8812C3.92249 12.8466 3.81853 12.8137 3.72083 12.783C8.24781 10.8109 11.263 9.51243 12.7739 8.884C14.9684 7.97124 16.2701 7.44551 17.0943 7.14643ZM19.5169 5.21806C19.2635 5.01244 18.985 4.91807 18.7915 4.87185C18.5917 4.82412 18.4018 4.80876 18.2578 4.8113C17.7814 4.81969 17.2697 4.95518 16.4121 5.26637C15.5373 5.58382 14.193 6.12763 12.0058 7.03736C10.4638 7.67874 7.39388 9.00115 2.80365 11.001C2.40046 11.1622 2.03086 11.3451 1.73884 11.5619C1.46919 11.7622 1.09173 12.1205 1.02268 12.6714C0.970519 13.0874 1.09182 13.4714 1.33782 13.7738C1.55198 14.037 1.82635 14.1969 2.03529 14.2981C2.34545 14.4483 2.76276 14.5791 3.12952 14.6941C3.70264 14.8737 4.27444 15.0572 4.84879 15.233C6.62691 15.7773 8.09066 16.2253 9.7012 17.2866C10.8825 18.0651 12.041 18.8775 13.2243 19.6531C13.6559 19.936 14.0593 20.2607 14.5049 20.5224C14.9916 20.8084 15.6104 21.0692 16.3636 20.9998C17.5019 20.8951 18.0941 19.8479 18.3331 18.5703C18.8552 15.7796 19.8909 9.68351 20.1332 7.13774C20.1648 6.80544 20.1278 6.433 20.097 6.25318C20.0653 6.068 19.9684 5.58448 19.5169 5.21806Z"></path></symbol><symbol viewBox="0 0 24 24" id="chat-3-line"><path d="M7.29117 20.8242L2 22L3.17581 16.7088C2.42544 15.3056 2 13.7025 2 12C2 6.47715 6.47715 2 12 2C17.5228 2 22 6.47715 22 12C22 17.5228 17.5228 22 12 22C10.2975 22 8.6944 21.5746 7.29117 20.8242ZM7.58075 18.711L8.23428 19.0605C9.38248 19.6745 10.6655 20 12 20C16.4183 20 20 16.4183 20 12C20 7.58172 16.4183 4 12 4C7.58172 4 4 7.58172 4 12C4 13.3345 4.32549 14.6175 4.93949 15.7657L5.28896 16.4192L4.63416 19.3658L7.58075 18.711Z"></path></symbol></svg>